<svg xmlns="http://www.w3.org/2000/svg" version="1.1" xmlns:xlink="http://www.w3.org/1999/xlink" xmlns:svgjs="http://svgjs.dev/svgjs" viewBox="0 0 1920 1080"><rect width="1920" height="1080" fill="#3a7ca5"></rect><g transform="matrix(0.5750000000000001,0.9959292143521044,-0.9959292143521044,0.5750000000000001,925.442222603774,-678.8822251436284)"><path d="M0,-1080C12.025641088766491,-1006.2588380962222,57.10839544652928,-825.5872054835647,72.15384653259895,-637.5530285773334C87.19929761866861,-449.5188516711021,118.26646543324719,-146.29893400964013,90.272706516418,48.20506143738805C62.278947599588804,242.70905688441624,-96.26917391334439,349.901727338481,-95.80870696837621,529.4709441048358C-95.34824002340804,709.0401608711906,71.46782769216777,953.8788438074007,93.03550818622705,1125.620362035517C114.60318868028632,1297.3618802636333,49.103294027017306,1387.5234471461201,33.59737599597946,1559.920053473534C18.09145796494162,1732.3166598009477,5.599562665996577,2059.986675578922,0,2160L 1920 2160 L 1920 -1080 Z" fill="url(&quot;#SvgjsLinearGradient1054&quot;)"></path><path d="M320,-1080C320.41073783894876,-1012.7092290525586,334.8284663897854,-817.5508911657976,322.4644270336927,-676.2553743153516C310.1003876776,-534.9598574649056,262.0190424338104,-408.78400505486456,245.81576386344403,-232.22689889732362C229.61248529307767,-55.66979273978268,233.02473926466004,220.3244141548873,225.24475561149444,383.08726262989416C217.46477195832884,545.850111104901,162.10101870112072,617.1212462037498,199.13586194445048,744.3501919527175C236.17070518778024,871.5791377016852,413.99853262311433,1002.1769565025112,447.453815071473,1146.4609371237007C480.9090975198317,1290.7449177448902,421.10985914651457,1441.1308985338046,399.8675566346024,1610.0540756798546C378.62525412269025,1778.9772528259045,333.3112594391004,2068.3423459466426,320,2160L 1920 2160 L 1920 -1080 Z" fill="url(&quot;#SvgjsLinearGradient1055&quot;)"></path><path d="M640,-1080C640.0488227199195,-993.0910818531814,621.3148117630009,-717.5799720533718,640.292936319517,-558.5464911190884C659.2710608760332,-399.513010184805,774.1965110993339,-311.90242661287675,753.8687473390969,-125.79911439429964C733.5409835788599,60.30419782427751,537.7888791961443,373.7771158273657,518.3263537580954,558.0733821923745C498.86382832004637,742.3696485573834,606.4095895542852,794.2673861715333,637.0935947108029,979.9784837957532C667.7775998673206,1165.689581419973,701.9459838156688,1475.669715236986,702.4303846972016,1672.3399679376937C702.9147855787344,1869.0102206384015,650.4050641162003,2078.7233279896154,640,2160L 1920 2160 L 1920 -1080 Z" fill="url(&quot;#SvgjsLinearGradient1056&quot;)"></path><path d="M960,-1080C958.2209611122199,-971.6867487764172,949.0489648267803,-663.1855607081687,949.3257666733193,-430.12049265850305C949.6025685198583,-197.0554246088374,971.9436042931644,105.15072867819492,961.660811079234,318.3904082979939C951.3780178653036,531.6300879177928,901.31572942253,667.7437000389996,887.6290073897369,849.3175850602906C873.9422853569438,1030.8914700815817,867.4786467807645,1189.3866492691222,879.540478882475,1407.8337184257405C891.6023109841855,1626.2807875823587,946.5900798137459,2034.6389530709566,960,2160L 1920 2160 L 1920 -1080 Z" fill="url(&quot;#SvgjsLinearGradient1057&quot;)"></path><path d="M1280,-1080C1290.121286912191,-992.5081449973193,1340.850148828572,-669.8400578459235,1340.7277214731457,-555.0488699839159C1340.6052941177195,-440.2576821219083,1278.6749321836728,-487.5535531547618,1279.2654358674433,-391.2528728279545C1279.8559395512139,-294.9521925011472,1333.0570734890764,-132.06279048434843,1344.2707435757686,22.75521197692808C1355.4844136624608,177.5732144382046,1368.8639094524513,377.57155380661686,1346.5474563875964,537.6551419397047C1324.2310033227416,697.7387300727925,1230.3259650662767,843.5473964567129,1210.3720251866398,983.2567407754548C1190.418085307003,1122.9660850941966,1206.658855077401,1243.2229102403257,1226.823817109775,1375.9112078521555C1246.988779142149,1508.5995054639852,1322.4991002325128,1648.7050610884594,1331.3617973808837,1779.3865264464334C1340.2244945292546,1910.0679918044075,1288.5602995634806,2096.564421074406,1280,2160L 1920 2160 L 1920 -1080 Z" fill="url(&quot;#SvgjsLinearGradient1058&quot;)"></path><path d="M1600,-1080C1617.9845559521648,-994.8320573052126,1700.6768635745495,-689.2776648848263,1707.9073357129882,-568.9923438312757C1715.137807851427,-448.707022777725,1649.3482884984912,-496.7937305575199,1643.3828328306327,-358.28807367869604C1637.417377162774,-219.7824167998722,1690.0591493971367,114.00475607913381,1672.1146017058372,262.04159744166736C1654.1700540145378,410.0784388042009,1554.9773679123407,411.0509163815432,1535.7155466828353,529.9329744965053C1516.45372545333,648.8150326114674,1564.914077638525,838.2828782275685,1556.5436743288055,975.3339461314399C1548.173271019086,1112.3850140353113,1458.7656367799545,1222.1067564836126,1485.493126824519,1352.2393819197337C1512.2206168690836,1482.3720073558547,1697.8241357336133,1621.5029290681218,1716.9086145961935,1756.1296987481662C1735.9930934587737,1890.7564684282106,1619.4847690993656,2092.6882831246944,1600,2160L 1920 2160 L 1920 -1080 Z" fill="url(&quot;#SvgjsLinearGradient1059&quot;)"></path></g><defs><linearGradient x1="0.1" y1="0" x2="0" y2="1" id="SvgjsLinearGradient1054"><stop stop-color="#3a7ca5" offset="0"></stop><stop stop-color="#3a8ea5" offset="0"></stop></linearGradient><linearGradient x1="0.1" y1="0" x2="0" y2="1" id="SvgjsLinearGradient1055"><stop stop-color="#4f95c1" offset="0"></stop><stop stop-color="#4fa8c1" offset="0.16666666666666666"></stop></linearGradient><linearGradient x1="0.1" y1="0" x2="0" y2="1" id="SvgjsLinearGradient1056"><stop stop-color="#73abce" offset="0"></stop><stop stop-color="#73bace" offset="0.3333333333333333"></stop></linearGradient><linearGradient x1="0.1" y1="0" x2="0" y2="1" id="SvgjsLinearGradient1057"><stop stop-color="#97c0da" offset="0"></stop><stop stop-color="#97cbda" offset="0.5"></stop></linearGradient><linearGradient x1="0.1" y1="0" x2="0" y2="1" id="SvgjsLinearGradient1058"><stop stop-color="#bbd6e7" offset="0"></stop><stop stop-color="#bbdde7" offset="0.6666666666666666"></stop></linearGradient><linearGradient x1="0.1" y1="0" x2="0" y2="1" id="SvgjsLinearGradient1059"><stop stop-color="#dfecf4" offset="0"></stop><stop stop-color="#dfeff4" offset="0.8333333333333334"></stop></linearGradient></defs></svg>